<svg xmlns="http://www.w3.org/2000/svg" xmlns:xlink="http://www.w3.org/1999/xlink">
    <symbol id="logo" viewBox="0 0 53 38">
        <g clip-path="url(#clip0)">
            <path d="M0 8.56477C0 6.10363 0.8 4.13472 2.4 2.46114C4.1 0.88601 6.1 0 8.6 0C11.2 0 13.2 0.689119 14.8 2.1658L13.6 3.93782C13 3.34715 12.2 2.95337 11.3 2.65803C10.4 2.36269 9.6 2.1658 8.7 2.1658C6.8 2.1658 5.3 2.75648 4.1 3.93782C3 5.21762 2.5 6.6943 2.5 8.56477C2.5 10.4352 3.1 12.0104 4.2 13.2902C5.4 14.5699 6.9 15.1606 8.8 15.1606C9.7 15.1606 10.7 14.9637 11.6 14.5699C12.5 14.1762 13.3 13.6839 14 12.9948L15.3 14.6684C13.5 16.4404 11.3 17.3264 8.7 17.3264C6.1 17.3264 4 16.5389 2.4 14.8653C0.8 13.0933 0 11.0259 0 8.56477Z"/>
            <path d="M18.3 17.0311V0.295334H20.6V7.58031H29.4V0.295334H31.8V16.9326H29.4V9.64767H20.6V16.9326H18.3V17.0311Z"/>
            <path d="M35.2 8.56477C35.2 6.20207 36 4.13472 37.7 2.46114C39.3 0.787565 41.4 0 43.9 0C46.4 0 48.5 0.787565 50.1 2.46114C51.8 4.13472 52.6 6.10363 52.6 8.56477C52.6 11.0259 51.8 13.0933 50.1 14.7668C48.4 16.4404 46.4 17.3264 43.9 17.3264C41.4 17.3264 39.3 16.4404 37.7 14.7668C36 13.0933 35.2 11.0259 35.2 8.56477ZM37.7 8.56477C37.7 10.4352 38.3 12.0104 39.5 13.2902C40.7 14.5699 42.2 15.1606 44 15.1606C45.8 15.1606 47.3 14.5699 48.5 13.2902C49.7 12.0104 50.3 10.4352 50.3 8.56477C50.3 6.79275 49.7 5.21762 48.5 4.03627C47.3 2.85492 45.8 2.1658 44 2.1658C42.2 2.1658 40.7 2.75648 39.5 4.03627C38.2 5.21762 37.7 6.6943 37.7 8.56477Z"/>
            <path d="M0 29.2383C0 26.7772 0.8 24.8083 2.4 23.1347C4.1 21.5596 6.1 20.6736 8.6 20.6736C11.2 20.6736 13.2 21.3627 14.8 22.8394L13.6 24.6114C13 24.0207 12.2 23.6269 11.3 23.3316C10.4 23.0363 9.5 22.8394 8.7 22.8394C6.8 22.8394 5.3 23.43 4.1 24.6114C3 25.7927 2.4 27.3679 2.4 29.1399C2.4 31.0104 3 32.5855 4.1 33.8653C5.3 35.1451 6.8 35.7357 8.7 35.7357C9.6 35.7357 10.6 35.5389 11.5 35.1451C12.4 34.7513 13.2 34.2591 13.9 33.5699L15.2 35.2435C13.4 37.0155 11.2 37.9015 8.6 37.9015C6 37.9015 3.9 37.114 2.3 35.4404C0.8 33.7668 0 31.6995 0 29.2383Z"/>
            <path d="M16.8 29.2383C16.8 26.7772 17.6 24.8083 19.2 23.1347C20.8 21.5596 22.9 20.6736 25.4 20.6736C28 20.6736 30 21.3627 31.6 22.8394L30.4 24.6114C29.8 24.0207 29 23.6269 28.1 23.3316C27.2 23.0363 26.3 22.8394 25.5 22.8394C23.6 22.8394 22.1 23.43 20.9 24.6114C19.8 25.7927 19.2 27.3679 19.2 29.1399C19.2 31.0104 19.8 32.5855 20.9 33.8653C22.1 35.1451 23.6 35.7357 25.5 35.7357C26.4 35.7357 27.4 35.5389 28.3 35.1451C29.2 34.7513 30 34.2591 30.7 33.5699L32 35.2435C30.2 37.0155 28 37.9015 25.4 37.9015C22.8 37.9015 20.7 37.114 19.1 35.4404C17.6 33.7668 16.8 31.6995 16.8 29.2383Z"/>
            <path d="M33.6 29.2383C33.6 26.8756 34.4 24.8083 36.1 23.1347C37.7 21.4611 39.8 20.6736 42.3 20.6736C44.8 20.6736 46.9 21.4611 48.5 23.1347C50.1 24.8083 51 26.7772 51 29.2383C51 31.6995 50.2 33.7668 48.5 35.4404C46.8 37.114 44.8 38 42.3 38C39.8 38 37.7 37.114 36.1 35.4404C34.4 33.7668 33.6 31.6995 33.6 29.2383ZM36 29.2383C36 31.1088 36.6 32.6839 37.8 33.9637C39 35.2435 40.5 35.8342 42.3 35.8342C44.1 35.8342 45.6 35.2435 46.8 33.9637C48 32.6839 48.6 31.1088 48.6 29.2383C48.6 27.4663 48 25.8912 46.8 24.7098C45.6 23.5285 44.1 22.8394 42.3 22.8394C40.5 22.8394 39 23.43 37.8 24.7098C36.6 25.8912 36 27.3679 36 29.2383Z"/>
        </g>
        <defs>
            <clipPath id="clip0">
                <rect width="52.6"/>
            </clipPath>
        </defs>
    </symbol>

    <symbol id="phone" viewBox="0 0 14 15">
        <path  d="M13.7455 13.0923C13.4909 13.5935 12.9818 13.8441 12.4727 14.0947C11.8364 14.4706 11.3273 14.5959 10.6909 14.5959C9.8 14.5959 8.90909 14.22 8.14545 13.9694C7.50909 13.7188 7 13.4682 6.36364 13.2176C4.58182 12.09 2.54545 10.0853 1.52727 8.45643C1.14545 7.82996 0.890909 7.32878 0.636364 6.70231C0.381818 5.82525 0 5.07349 0 4.07113C0 3.44466 0.127273 2.81819 0.509091 2.19172C0.763636 1.69054 1.01818 1.18936 1.52727 0.938771C1.90909 0.938771 2.54545 0.813477 2.92727 0.813477C3.05455 0.813477 3.05455 0.813477 3.18182 0.813477C3.43636 0.938771 3.56364 1.31465 3.69091 1.56524C3.94545 2.19172 4.32727 2.69289 4.58182 3.31936C4.83636 3.56995 5.09091 3.82054 5.09091 4.07113C5.09091 4.6976 3.30909 5.57466 3.30909 6.07584C3.30909 6.32643 3.56364 6.70231 3.69091 6.9529C4.70909 8.70702 5.98182 9.95997 7.76364 10.9623C8.01818 11.0876 8.4 11.3382 8.65455 11.3382C9.16364 11.3382 10.0545 9.58408 10.6909 9.58408C10.9455 9.58408 11.2 9.83467 11.4545 10.0853C11.9636 10.4611 12.6 10.7117 13.1091 11.0876C13.3636 11.2129 13.7455 11.3382 13.8727 11.5888C13.8727 11.7141 13.8727 11.7141 13.8727 11.8394C14 12.09 13.8727 12.7164 13.7455 13.0923Z"/>
    </symbol> 

    <symbol id="close" viewBox="0 0 20 20">
        <path d="M13.5556 10L19.3333 4.22222C20.2222 3.33333 20.2222 2 19.3333 1.22222L18.8889 0.777778C18 -0.111111 16.6667 -0.111111 15.8889 0.777778L10 6.44444L4.22222 0.666667C3.33333 -0.222222 2 -0.222222 1.11111 0.666667L0.666667 1.11111C-0.222222 2 -0.222222 3.33333 0.666667 4.11111L6.44444 10L0.666667 15.7778C-0.222222 16.6667 -0.222222 18 0.666667 18.7778L1.11111 19.3333C2 20.2222 3.33333 20.2222 4.11111 19.3333L10 13.5556L15.7778 19.3333C16.6667 20.2222 18 20.2222 18.7778 19.3333L19.2222 18.8889C20.1111 18 20.1111 16.6667 19.2222 15.8889L13.5556 10Z"/>
    </symbol>

    <symbol id="nav-prev" viewBox="0 0 15 29">
        <path d="M14 28L1.91422 15.9142C1.13317 15.1332 1.13317 13.8668 1.91421 13.0858L14 1"/>
    </symbol>

    <symbol id="nav-next" viewBox="0 0 15 29">
        <path d="M1 1L13.0858 13.0858C13.8668 13.8668 13.8668 15.1332 13.0858 15.9142L1 28"/>
    </symbol>

     <symbol id="compound-icon" viewBox="0 0 46 46" xmlns="http://www.w3.org/2000/svg">
        <path d="M44.6903 7.1641L38.8069 1.27893C37.9858 0.457505 36.8943 0 35.7301 0C34.5659 0 33.4641 0.457505 32.6429 1.27893C31.7802 2.14195 31.3436 3.29611 31.3644 4.46067C30.2002 4.43987 29.0464 4.87658 28.1837 5.7396C27.3209 6.60262 26.8843 7.75678 26.9051 8.92134C25.7409 8.89015 24.5871 9.33725 23.7244 10.2003C22.8616 11.0633 22.425 12.2175 22.4458 13.382C21.2816 13.3612 20.1278 13.7979 19.2651 14.6609L4.71265 29.2179L0.315736 33.6162C0.191001 33.7306 0.0974494 33.8865 0.0454764 34.0529C0.0454764 34.0737 0.0350818 34.0841 0.0350818 34.1049C-0.0272858 34.344 -0.00649662 34.5832 0.0974494 34.7911C0.118239 34.8431 0.149422 34.8847 0.170212 34.9367C0.305341 35.1343 0.502839 35.2902 0.752309 35.363L4.31766 36.382L5.33633 39.9485C5.42988 40.2916 5.70014 40.5619 6.05355 40.6659L9.6189 41.6849L10.6376 45.2514C10.7103 45.5009 10.8663 45.6985 11.0741 45.8336C11.1157 45.8648 11.1573 45.8856 11.2093 45.9064C11.3444 45.9688 11.4899 46 11.6355 46C11.729 46 11.8226 45.9896 11.9265 45.9584C12.1136 45.9064 12.2695 45.8128 12.3943 45.6777L16.7912 41.2794L23.1007 34.9679C23.2254 35.0927 23.371 35.1759 23.5373 35.2278C23.9011 35.3318 24.2961 35.2382 24.5663 34.9679L32.0816 27.4503C32.487 27.0448 32.487 26.3897 32.0816 25.9842L31.9881 25.8906C32.4247 25.1731 32.6325 24.3517 32.6222 23.5303C33.7863 23.5511 34.9401 23.1144 35.8029 22.2514C36.6656 21.3883 37.1022 20.2342 37.0814 19.0696C38.2456 19.1008 39.3994 18.6537 40.2622 17.7907C41.1249 16.9277 41.5615 15.7735 41.5407 14.609C42.7049 14.6297 43.8587 14.193 44.7215 13.33C45.5426 12.5086 46 11.4064 46 10.2419C45.9688 9.0877 45.5218 7.98553 44.6903 7.1641ZM12.1344 42.9638L11.4484 40.5411C11.3548 40.198 11.0845 39.9277 10.7311 39.8237L7.16578 38.8151L6.14711 35.2486C6.05356 34.9055 5.7833 34.6352 5.42988 34.5312L3.00794 33.8449L5.42988 31.4222L14.5459 40.5411L12.1344 42.9638ZM24.4208 32.1501L21.9781 20.8476C21.8533 20.2862 21.3024 19.9326 20.7411 20.047C20.1798 20.1718 19.8264 20.7229 19.9407 21.2844L22.4043 32.6908L16.022 39.075L6.90591 29.9561L19.9927 16.8653L29.8468 26.7224L24.4208 32.1501ZM43.2246 11.8639C42.5282 12.5606 41.468 12.7373 40.5948 12.2902C40.1998 12.0927 39.7113 12.1655 39.3994 12.4878C39.0876 12.8101 39.0044 13.2884 39.2019 13.6835C39.6385 14.5674 39.4618 15.6279 38.7758 16.3142C38.0897 17.0005 37.0191 17.1876 36.1459 16.7405C35.7509 16.5429 35.2624 16.6157 34.9505 16.9381C34.6387 17.25 34.5555 17.7387 34.753 18.1338C35.1896 19.0176 35.0129 20.0782 34.3269 20.7645C33.6304 21.4611 32.5702 21.6379 31.697 21.1908C31.302 20.9932 30.8135 21.066 30.5017 21.3883C30.1898 21.7003 30.1067 22.189 30.3042 22.5841C30.5744 23.1352 30.616 23.7486 30.4289 24.3101L21.6662 15.5448C22.2276 15.368 22.8408 15.3992 23.3917 15.6695C23.7867 15.8671 24.2753 15.7943 24.5871 15.472C24.899 15.1496 24.9821 14.6713 24.7846 14.2762C24.348 13.3924 24.5248 12.3318 25.2108 11.6456C25.8968 10.9593 26.9675 10.7722 27.8406 11.2193C28.2356 11.4168 28.7242 11.344 29.036 11.0217C29.3479 10.7098 29.431 10.2211 29.2335 9.82595C28.7969 8.94213 28.9736 7.88155 29.6597 7.1953C30.3561 6.49864 31.4164 6.32188 32.2895 6.76899C32.6845 6.96655 33.1731 6.89376 33.4849 6.57143C33.7967 6.25949 33.8799 5.7708 33.6824 5.37568C33.2458 4.49186 33.4225 3.43128 34.1086 2.74503C34.5452 2.30832 35.1169 2.07957 35.7301 2.07957C36.3434 2.07957 36.9151 2.31872 37.3517 2.74503L43.2246 8.6302C43.6612 9.06691 43.8899 9.63879 43.8899 10.2523C43.8899 10.8553 43.6508 11.4376 43.2246 11.8639Z"/>
    </symbol>

</svg>